<svg width="2000" height="2000" viewBox="0 0 560 560" xmlns="http://www.w3.org/2000/svg" fill="none">
  <path id="box" d="M 70 150 H 120 L 130 160 A 42 42 90 1 0 210 160 L 220 150 H 340 L 350 160 A 42 42 90 1 0 430 160 L 440 150 H 490 A 20 15 90 1 1 490 190 H 470 L 450 350 C 440 410 440 410 380 410 H 180 C 120 410 120 410 110 350 L 90 190 H 70 A 20 15 90 1 1 70 150" fill="#74AD3E"/>
  <path id="chart" d="M 80 80 A 32.6 32.6 90 1 0 70 90 L 140 160 A 32.6 32.6 90 1 0 200 160 L 270 90 A 32.6 32.6 90 0 0 290 90 L 360 160 A 32.6 32.6 90 1 0 420 160 L 490 90 A 32.6 32.6 90 1 0 480 80 L 411.632 148.368 A 32.6 32.6 90 0 0 368.368 148.368 L 302.532 82.532 A 32.6 32.6 90 1 0 257.468 82.532 L 191.632 148.368 A 32.6 32.6 90 0 0 148.368 148.368 Z" fill="#74AD3E"/>
  <path id="holes" d="M 170 240 C 170 220 200 220 200 240 V 340 C 200 360 170 360 170 340 V 240 M 265 240 C 265 220 295 220 295 240 V 340 C 295 360 265 360 265 340 V 240 M 360 240 C 360 220 390 220 390 240 V 340 C 390 360 360 360 360 340 V 240" fill="#272F3C"/>
  <path id="text" d="M 110 530 L 76.637 482.087 L 64.07 495.416 L 64.07 530 L 44.798 530 L 44.798 419.093 L 64.07 419.093 L 64.07 471.119 L 74.735 457.94 L 107.183 419.093 L 130.49 419.093 L 89.282 468.224 L 132.854 530 L 110 530 Z M 376.298 472.337 L 357.788 472.337 Q 357.788 467.006 353.828 463.463 A 13.5 13.5 90 0 0 347.69 460.379 A 19.785 19.785 90 0 0 343.316 459.92 Q 337.223 459.92 333.374 462.74 A 9.567 9.567 90 0 0 330.746 465.569 Q 329.528 467.624 329.528 470.282 A 8.073 8.073 90 0 0 330.164 473.537 Q 331.037 475.541 333.11 476.906 A 15.225 15.225 90 0 0 335.357 478.091 Q 339.02 479.696 346.04 481.319 A 150.951 150.951 90 0 0 347.582 481.667 Q 354.671 483.23 359.777 485.18 A 43.053 43.053 90 0 1 364.682 487.382 A 30.681 30.681 90 0 1 369.197 490.292 Q 371.657 492.224 373.313 494.489 A 18.279 18.279 90 0 1 373.898 495.341 Q 376.907 499.988 376.907 506.615 A 21.135 21.135 90 0 1 369.854 522.836 A 27.573 27.573 90 0 1 367.691 524.63 Q 359.258 530.936 346.04 531.473 A 61.605 61.605 90 0 1 343.544 531.524 Q 333.413 531.524 325.49 527.867 Q 317.57 524.21 313.151 517.811 A 24.471 24.471 90 0 1 309.188 508.655 A 23.547 23.547 90 0 1 308.735 504.026 L 326.711 504.026 A 15.936 15.936 90 0 0 327.584 508.514 A 12.165 12.165 90 0 0 331.661 514.118 A 16.047 16.047 90 0 0 337.523 516.926 Q 339.812 517.523 342.506 517.634 A 30.54 30.54 90 0 0 343.772 517.658 A 30.813 30.813 90 0 0 347.903 517.4 Q 349.94 517.124 351.602 516.554 A 12.345 12.345 90 0 0 354.893 514.88 A 9.78 9.78 90 0 0 357.323 512.393 A 8.475 8.475 90 0 0 358.703 507.605 A 9.507 9.507 90 0 0 358.106 504.161 Q 357.143 501.662 354.626 500.063 Q 351.266 497.927 344.255 496.208 A 95.016 95.016 90 0 0 341.108 495.494 Q 333.692 493.937 328.199 491.726 A 47.361 47.361 90 0 1 325.34 490.466 A 31.887 31.887 90 0 1 318.638 486.221 A 19.02 19.02 90 0 1 311.477 471.041 A 21.477 21.477 90 0 1 318.605 454.826 A 29.607 29.607 90 0 1 320.465 453.218 A 32.136 32.136 90 0 1 334.361 446.903 A 45.201 45.201 90 0 1 343.316 446.057 A 48.63 48.63 90 0 1 353.501 447.065 Q 360.194 448.499 365.303 451.97 A 29.484 29.484 90 0 1 367.196 453.371 Q 376.298 460.682 376.298 472.337 Z M 141.08 447.581 L 158.522 447.581 L 159.056 457.103 A 29.271 29.271 90 0 1 180.314 446.156 A 37.911 37.911 90 0 1 183.05 446.057 Q 207.77 446.057 209.177 473.231 A 63.651 63.651 90 0 1 209.252 475.535 L 209.252 530 L 190.742 530 L 190.742 476.603 Q 190.742 468.758 187.355 464.987 A 10.143 10.143 90 0 0 183.314 462.311 Q 180.419 461.216 176.27 461.216 Q 165.074 461.216 159.59 471.347 L 159.59 530 L 141.08 530 L 141.08 447.581 Z M 296.24 530 L 277.352 530 A 12.63 12.63 90 0 1 276.689 528.437 Q 275.876 526.139 275.219 522.305 Q 266.381 531.524 253.586 531.524 A 35.532 35.532 90 0 1 244.418 530.399 A 26.451 26.451 90 0 1 233.324 524.438 A 23.55 23.55 90 0 1 227.216 516.002 A 23.367 23.367 90 0 1 225.479 506.918 A 28.2 28.2 90 0 1 226.796 498.068 A 22.377 22.377 90 0 1 235.265 486.695 Q 242.546 481.457 254.477 480.113 A 78.639 78.639 90 0 1 263.258 479.651 L 274.61 479.651 L 274.61 474.242 A 18.549 18.549 90 0 0 274.115 469.844 A 12.897 12.897 90 0 0 271.028 463.997 Q 267.449 460.151 260.135 460.151 A 20.703 20.703 90 0 0 255.566 460.628 A 14.403 14.403 90 0 0 249.776 463.31 A 11.004 11.004 90 0 0 247.124 466.223 A 9.63 9.63 90 0 0 245.738 471.347 L 227.231 471.347 A 20.088 20.088 90 0 1 230.639 460.202 A 25.476 25.476 90 0 1 231.725 458.663 Q 236.219 452.762 243.95 449.408 A 40.725 40.725 90 0 1 255.989 446.324 A 50.142 50.142 90 0 1 261.203 446.057 A 46.677 46.677 90 0 1 270.8 446.987 Q 276.764 448.241 281.366 451.184 A 27.276 27.276 90 0 1 284.282 453.332 A 24.282 24.282 90 0 1 292.55 467.933 A 35.367 35.367 90 0 1 293.117 473.783 L 293.117 510.956 A 64.677 64.677 90 0 0 293.456 517.772 Q 294.143 524.252 296.24 528.704 L 296.24 530 Z M 513.026 530 L 494.135 530 A 12.63 12.63 90 0 1 493.475 528.437 Q 492.659 526.139 492.002 522.305 Q 483.167 531.524 470.369 531.524 A 35.532 35.532 90 0 1 461.201 530.399 A 26.451 26.451 90 0 1 450.11 524.438 A 23.55 23.55 90 0 1 444.002 516.002 A 23.367 23.367 90 0 1 442.262 506.918 A 28.2 28.2 90 0 1 443.582 498.068 A 22.377 22.377 90 0 1 452.051 486.695 Q 459.329 481.457 471.263 480.113 A 78.639 78.639 90 0 1 480.044 479.651 L 491.393 479.651 L 491.393 474.242 A 18.549 18.549 90 0 0 490.901 469.844 A 12.897 12.897 90 0 0 487.814 463.997 Q 484.235 460.151 476.921 460.151 A 20.703 20.703 90 0 0 472.352 460.628 A 14.403 14.403 90 0 0 466.562 463.31 A 11.004 11.004 90 0 0 463.91 466.223 A 9.63 9.63 90 0 0 462.524 471.347 L 444.014 471.347 A 20.088 20.088 90 0 1 447.425 460.202 A 25.476 25.476 90 0 1 448.508 458.663 Q 453.002 452.762 460.736 449.408 A 40.725 40.725 90 0 1 472.772 446.324 A 50.142 50.142 90 0 1 477.986 446.057 A 46.677 46.677 90 0 1 487.583 446.987 Q 493.547 448.241 498.152 451.184 A 27.276 27.276 90 0 1 501.068 453.332 A 24.282 24.282 90 0 1 509.336 467.933 A 35.367 35.367 90 0 1 509.903 473.783 L 509.903 510.956 A 64.677 64.677 90 0 0 510.239 517.772 Q 510.929 524.252 513.026 528.704 L 513.026 530 Z M 397.703 427.547 L 416.213 427.547 L 416.213 447.581 L 430.76 447.581 L 430.76 461.291 L 416.213 461.291 L 416.213 507.299 Q 416.213 511.673 417.812 513.791 A 5.169 5.169 90 0 0 418.079 514.118 Q 419.945 516.212 424.742 516.212 A 28.515 28.515 90 0 0 431.219 515.45 L 431.219 529.772 A 48.423 48.423 90 0 1 423.212 531.305 A 41.097 41.097 90 0 1 419.03 531.524 A 27.558 27.558 90 0 1 410.207 530.231 Q 397.934 526.085 397.706 508.649 A 50.85 50.85 90 0 1 397.703 507.986 L 397.703 461.291 L 384.143 461.291 L 384.143 447.581 L 397.703 447.581 L 397.703 427.547 Z M 274.61 506.843 L 274.61 491.303 L 264.629 491.303 A 47.721 47.721 90 0 0 259.25 491.588 Q 253.238 492.272 249.584 494.606 A 13.848 13.848 90 0 0 249.167 494.885 A 11.364 11.364 90 0 0 244.115 503.039 A 14.973 14.973 90 0 0 243.986 505.016 A 12.954 12.954 90 0 0 244.529 508.85 A 10.149 10.149 90 0 0 247.529 513.509 A 12.027 12.027 90 0 0 252.854 516.215 Q 254.642 516.641 256.733 516.668 A 22.023 22.023 90 0 0 257.012 516.668 A 21.054 21.054 90 0 0 267.335 514.004 A 18.849 18.849 90 0 0 272.231 510.194 A 17.013 17.013 90 0 0 274.61 506.843 Z M 491.393 506.843 L 491.393 491.303 L 481.415 491.303 A 47.721 47.721 90 0 0 476.036 491.588 Q 470.024 492.272 466.37 494.606 A 13.848 13.848 90 0 0 465.953 494.885 A 11.364 11.364 90 0 0 460.898 503.039 A 14.973 14.973 90 0 0 460.772 505.016 A 12.954 12.954 90 0 0 461.312 508.85 A 10.149 10.149 90 0 0 464.315 513.509 A 12.027 12.027 90 0 0 469.64 516.215 Q 471.428 516.641 473.519 516.668 A 22.023 22.023 90 0 0 473.798 516.668 A 21.054 21.054 90 0 0 484.118 514.004 A 18.849 18.849 90 0 0 489.017 510.194 A 17.013 17.013 90 0 0 491.393 506.843 Z" fill="#FFF"/>
</svg>